<svg viewBox="0 0 64 64" xmlns="http://www.w3.org/2000/svg">
    <path d="m26.09 10.67c.005-.00861 21.253.09618 21.26.09a1.11592 1.11592 0 0 1 1.07.81l1.28 4.57c.74453 3.20032 5.98288 3.95459 6.21.10991v-9.12991a3.12189 3.12189 0 0 0 -3.11-3.12h-41.62a3.00345 3.00345 0 0 0 -2.22987 4.97l19.13987 21.52a1.59712 1.59712 0 0 1 .02 2.1l-19.3 22.48a2.98411 2.98411 0 0 0 2.27 4.93h41.72a3.12189 3.12189 0 0 0 3.11-3.12v-9.02c-.146-3.60909-5.253-3.232-6.3199-.34991l-1.2201 2.83991a1.102 1.102 0 0 1 -1.02.68h-21.71a1.10635 1.10635 0 0 1 -1.01-.66 1.09071 1.09071 0 0 1 .18-1.19l13.79-15.5a3.11272 3.11272 0 0 0 .12-3.99l-13.5-17.23a1.11439 1.11439 0 0 1 .87-1.79z"/>
</svg>
